<svg width="12" height="14" viewBox="0 0 12 14" fill="none" xmlns="http://www.w3.org/2000/svg">
<path d="M11.1583 8.21014L10.1737 7.22492L5.74339 2.79179C4.92688 1.98086 3.60887 1.9833 2.79542 2.7973C1.98197 3.6113 1.97953 4.93019 2.78992 5.74725L7.22007 10.1817C7.40127 10.3631 7.69518 10.3631 7.87648 10.1817C8.05767 10.0003 8.05767 9.70627 7.87648 9.52485L3.44632 5.0904C2.99323 4.637 2.99323 3.90204 3.44632 3.44864C3.89942 2.99524 4.63389 2.99524 5.08698 3.44864L9.51846 7.88177L10.503 8.86689C11.3187 9.68343 11.3184 11.007 10.5025 11.8232C9.68651 12.6393 8.36391 12.6391 7.54822 11.8225L6.72794 11.0014L2.13361 6.40399L1.80536 6.07562C0.658052 4.89164 0.672625 3.00544 1.83797 1.83921C3.00342 0.673077 4.88836 0.658494 6.07154 1.80657L10.994 6.73246C11.1113 6.84974 11.2822 6.89553 11.4423 6.8526C11.6025 6.80966 11.7277 6.68454 11.7706 6.52422C11.8135 6.36391 11.7676 6.193 11.6504 6.07562L6.72794 1.14983C5.18634 -0.385771 2.69351 -0.382916 1.15548 1.15625C-0.382659 2.69532 -0.385512 5.18983 1.14906 6.73246L6.07154 11.6583L6.89304 12.4794C8.07775 13.6181 9.95525 13.5991 11.1166 12.4366C12.2781 11.2741 12.2965 9.39534 11.1583 8.21014Z" fill="black"/>
</svg>
