<svg width="14" height="14" viewBox="0 0 14 14" fill="none" xmlns="http://www.w3.org/2000/svg">
<path fill-rule="evenodd" clip-rule="evenodd" d="M6.10352e-05 6.97674C6.10352e-05 3.12367 3.12369 0 6.97676 0C10.8297 0 13.9536 3.12367 13.9536 6.97674C13.9536 10.8297 10.8297 13.9536 6.97667 13.9536C3.12364 13.9536 6.10352e-05 10.8297 6.10352e-05 6.97674ZM7.67494 7.74423H9.92006C10.3136 7.74423 10.6329 7.42526 10.6328 7.03149C10.6329 6.63763 10.3136 6.31833 9.91983 6.31856L7.67494 6.31833L7.67481 4.23521C7.67494 3.84149 7.35574 3.52228 6.96187 3.52228C6.56825 3.52228 6.24904 3.84144 6.24904 4.23521V6.31851L4.06374 6.31837C3.67001 6.31847 3.35081 6.63767 3.35081 7.0313C3.35104 7.42502 3.66997 7.74409 4.06374 7.74423H6.24908V10.0914C6.24908 10.4853 6.56815 10.8043 6.96201 10.8043C7.35574 10.8043 7.67481 10.4853 7.67494 10.0916V7.74423Z" fill="white"/>
</svg>
